<svg width="118" height="201" viewBox="0 0 118 201" fill="none" xmlns="http://www.w3.org/2000/svg">
<path d="M3.6325 169.152L4.24614 165.402H5.20068C5.98477 165.402 6.66091 165.249 7.22909 164.942C7.80864 164.624 8.32568 164.072 8.78023 163.288C9.24614 162.493 9.68364 161.391 10.0927 159.982C10.5132 158.561 10.9507 156.754 11.4052 154.561L13.7916 142.97H31.2461L26.8825 169.152H22.8598L26.6098 146.72H16.9961L15.0189 156.061C14.5757 158.209 14.07 160.101 13.5018 161.737C12.945 163.362 12.2802 164.726 11.5075 165.828C10.7461 166.93 9.83137 167.76 8.76318 168.317C7.70637 168.874 6.45068 169.152 4.99614 169.152H3.6325ZM41.8995 169.766C40.2405 169.766 38.7859 169.453 37.5359 168.828C36.2859 168.192 35.3598 167.277 34.7575 166.084C34.1552 164.879 33.9905 163.425 34.2632 161.72C34.5245 160.22 35.0302 159.004 35.7802 158.072C36.5302 157.129 37.4393 156.391 38.5075 155.857C39.587 155.311 40.7461 154.908 41.9848 154.646C43.2348 154.374 44.4791 154.163 45.7177 154.016C47.3314 153.811 48.6439 153.652 49.6552 153.538C50.6666 153.425 51.428 153.237 51.9393 152.976C52.4507 152.715 52.7632 152.266 52.8768 151.629V151.493C53.1495 149.822 52.928 148.521 52.212 147.59C51.4961 146.646 50.2177 146.175 48.3768 146.175C46.4677 146.175 44.8711 146.595 43.587 147.436C42.303 148.277 41.3541 149.175 40.7405 150.129L37.195 148.766C38.1268 147.175 39.2405 145.936 40.5359 145.05C41.8314 144.152 43.1893 143.527 44.6098 143.175C46.0302 142.811 47.3995 142.629 48.7177 142.629C49.5586 142.629 50.5075 142.732 51.5643 142.936C52.6211 143.129 53.6098 143.533 54.5302 144.146C55.462 144.76 56.1609 145.686 56.6268 146.925C57.1041 148.163 57.1723 149.822 56.8314 151.902L53.9677 169.152H49.945L50.5586 165.607H50.3541C49.9905 166.175 49.4336 166.783 48.6836 167.43C47.945 168.078 47.0075 168.629 45.8711 169.084C44.7461 169.538 43.4223 169.766 41.8995 169.766ZM43.0586 166.152C44.6495 166.152 46.0416 165.84 47.2348 165.215C48.4393 164.59 49.4052 163.783 50.1325 162.794C50.8711 161.805 51.3314 160.766 51.5132 159.675L52.1268 155.993C51.9223 156.197 51.5189 156.385 50.9166 156.555C50.3143 156.715 49.6325 156.857 48.8711 156.982C48.1211 157.095 47.3882 157.197 46.6723 157.288C45.9677 157.368 45.3995 157.436 44.9677 157.493C43.8995 157.629 42.8825 157.851 41.9166 158.158C40.962 158.453 40.1552 158.902 39.4961 159.504C38.8484 160.095 38.445 160.902 38.2859 161.925C38.0473 163.322 38.3825 164.379 39.2916 165.095C40.2007 165.8 41.4564 166.152 43.0586 166.152ZM61.3101 169.152L65.6737 142.97H69.6964L67.7873 154.357H70.4464L81.7646 142.97H86.9464L74.2646 155.584L82.7192 169.152H77.5373L70.7873 158.107H67.1737L65.3328 169.152H61.3101ZM92.1368 163.22L108.091 142.97H112.728L108.364 169.152H104.341L107.682 148.902L91.7959 169.152H87.0913L91.4549 142.97H95.4777L92.1368 163.22Z" fill="white"/>
<path d="M15.1772 200.367C12.3363 200.367 9.90446 199.805 7.88173 198.68C5.85901 197.544 4.30787 195.964 3.22833 193.941C2.14878 191.907 1.60901 189.549 1.60901 186.867C1.60901 184.186 2.14878 181.833 3.22833 179.811C4.30787 177.777 5.85901 176.197 7.88173 175.072C9.90446 173.936 12.3363 173.367 15.1772 173.367C17.7454 173.367 19.967 173.833 21.842 174.765C23.7283 175.686 25.1886 176.992 26.2226 178.686C27.2567 180.367 27.7795 182.345 27.7908 184.617H19.0636C18.9386 183.242 18.5408 182.197 17.8704 181.481C17.2113 180.754 16.359 180.39 15.3136 180.39C14.4954 180.39 13.7795 180.629 13.1658 181.106C12.5522 181.572 12.0749 182.282 11.734 183.237C11.3931 184.18 11.2226 185.367 11.2226 186.799C11.2226 188.231 11.3931 189.424 11.734 190.379C12.0749 191.322 12.5522 192.032 13.1658 192.509C13.7795 192.975 14.4954 193.208 15.3136 193.208C16.0067 193.208 16.6204 193.049 17.1545 192.731C17.6886 192.402 18.1204 191.924 18.4499 191.299C18.7908 190.663 18.9954 189.89 19.0636 188.981H27.7908C27.7567 191.288 27.2283 193.299 26.2056 195.015C25.1829 196.72 23.734 198.038 21.859 198.97C19.9954 199.902 17.7681 200.367 15.1772 200.367ZM31.0562 180.731V173.708H56.4199V180.731H48.1017V199.89H39.238V180.731H31.0562ZM67.5134 200.299C65.8429 200.299 64.3657 200.027 63.0816 199.481C61.8088 198.924 60.8088 198.083 60.0816 196.958C59.3543 195.833 58.9907 194.402 58.9907 192.663C58.9907 191.231 59.235 190.009 59.7236 188.998C60.2122 187.975 60.8941 187.14 61.7691 186.492C62.6441 185.845 63.6611 185.35 64.8202 185.009C65.9907 184.669 67.252 184.447 68.6043 184.345C70.0702 184.231 71.2463 184.095 72.1327 183.936C73.0304 183.765 73.6782 183.532 74.0759 183.237C74.4736 182.93 74.6725 182.527 74.6725 182.027V181.958C74.6725 181.277 74.4111 180.754 73.8884 180.39C73.3657 180.027 72.6952 179.845 71.877 179.845C70.9793 179.845 70.2463 180.044 69.6782 180.441C69.1213 180.828 68.7861 181.424 68.6725 182.231H60.0134C60.127 180.64 60.6327 179.174 61.5304 177.833C62.4395 176.481 63.7634 175.402 65.502 174.595C67.2407 173.777 69.4111 173.367 72.0134 173.367C73.8884 173.367 75.5702 173.589 77.0588 174.032C78.5475 174.464 79.8145 175.072 80.86 175.856C81.9054 176.629 82.7009 177.538 83.2463 178.583C83.8032 179.617 84.0816 180.742 84.0816 181.958V199.89H75.2861V196.208H75.0816C74.5588 197.186 73.9225 197.975 73.1725 198.578C72.4338 199.18 71.5872 199.617 70.6327 199.89C69.6895 200.163 68.6497 200.299 67.5134 200.299ZM70.5816 194.367C71.2975 194.367 71.9679 194.22 72.5929 193.924C73.2293 193.629 73.7463 193.203 74.1441 192.646C74.5418 192.089 74.7407 191.413 74.7407 190.617V188.436C74.4907 188.538 74.2236 188.634 73.9395 188.725C73.6668 188.816 73.3713 188.902 73.0532 188.981C72.7463 189.061 72.4168 189.134 72.0645 189.203C71.7236 189.271 71.3657 189.333 70.9907 189.39C70.2634 189.504 69.6668 189.691 69.2009 189.953C68.7463 190.203 68.4054 190.515 68.1782 190.89C67.9622 191.254 67.8543 191.663 67.8543 192.117C67.8543 192.845 68.11 193.402 68.6213 193.788C69.1327 194.174 69.7861 194.367 70.5816 194.367ZM89.5373 199.89V173.708H98.9464V183.049H100.583L106.174 173.708H116.946L108.56 186.936L117.015 199.89H106.105L101.06 191.777H98.9464V199.89H89.5373Z" fill="white"/>
<mask id="path-3-inside-1_51_345" fill="white">
<path d="M73.6089 15.7368C81.9131 15.7368 88.645 22.4687 88.645 30.773C88.645 35.2721 86.6682 39.3085 83.5366 42.064C83.5345 42.0658 83.534 42.0695 83.5356 42.0718C83.5372 42.0738 83.5373 42.0767 83.5356 42.0786L68.8133 56.5701C67.2505 58.1084 67.2404 60.6254 68.7909 62.1761C70.3415 63.727 72.8587 63.7172 74.3972 62.1545L88.8901 47.4331C88.8918 47.4314 88.8948 47.4311 88.897 47.4321C88.8993 47.4336 88.903 47.4332 88.9048 47.4312C91.6602 44.2999 95.697 42.3239 100.196 42.3237C108.5 42.3237 115.232 49.0557 115.232 57.3599C115.232 62.803 112.34 67.5706 108.008 70.2095C107.236 70.6802 106.708 71.4913 106.708 72.396C106.708 73.3005 107.236 74.1119 108.008 74.5825C112.34 77.2215 115.232 81.9882 115.232 87.4312C115.232 95.7354 108.5 102.467 100.196 102.467C95.6967 102.467 91.6602 100.491 88.9048 97.3589C88.9029 97.3568 88.8992 97.3562 88.897 97.3579C88.8949 97.3593 88.892 97.3596 88.8901 97.3579L74.3982 82.6359C72.8596 81.0729 70.3423 81.063 68.7915 82.6138C67.2407 84.1646 67.2506 86.6819 68.8136 88.2204L83.5356 102.712C83.5377 102.714 83.538 102.718 83.5366 102.72C83.5353 102.723 83.5364 102.726 83.5386 102.728C86.6692 105.483 88.6449 109.52 88.645 114.018C88.645 122.322 81.913 129.054 73.6089 129.054C68.1658 129.054 63.3982 126.162 60.7593 121.831C60.2886 121.058 59.4775 120.53 58.5728 120.53C57.6682 120.53 56.8569 121.058 56.3862 121.831C53.7473 126.162 48.9805 129.054 43.5376 129.054C35.2334 129.054 28.5015 122.322 28.5015 114.018C28.5016 109.519 30.4782 105.482 33.6099 102.727C33.612 102.725 33.6125 102.722 33.6108 102.719C33.6093 102.717 33.609 102.714 33.6108 102.712L48.3325 88.22C49.8951 86.6817 49.905 84.1648 48.3545 82.6143C46.804 81.0637 44.287 81.0736 42.7487 82.6363L28.2563 97.3579C28.2544 97.3599 28.252 97.3601 28.2495 97.3589C28.2469 97.3574 28.2427 97.3586 28.2407 97.3608C25.4853 100.491 21.449 102.467 16.9507 102.467C8.64652 102.467 1.91464 95.7353 1.91455 87.4312C1.91469 81.988 4.80746 77.2204 9.13916 74.5815C9.91163 74.1108 10.439 73.2996 10.439 72.395C10.4388 71.4904 9.91169 70.6791 9.13916 70.2085C4.8075 67.5696 1.91476 62.8029 1.91455 57.3599C1.91455 49.0556 8.64646 42.3237 16.9507 42.3237C21.4499 42.3238 25.4862 44.3005 28.2417 47.4321C28.2435 47.4342 28.2473 47.4347 28.2495 47.4331C28.2516 47.4316 28.2544 47.4314 28.2563 47.4331L42.7487 62.1548C44.287 63.7174 46.804 63.7273 48.3545 62.1768C49.905 60.6262 49.8951 58.1093 48.3325 56.571L33.6155 42.0832C33.6125 42.0802 33.6105 42.0763 33.6099 42.0721C33.6092 42.0675 33.607 42.0633 33.6035 42.0602C30.4751 39.3048 28.5015 35.2694 28.5015 30.773C28.5015 22.4687 35.2334 15.7368 43.5376 15.7368C48.9807 15.737 53.7483 18.6297 56.3872 22.9614C56.8579 23.7339 57.6692 24.2612 58.5737 24.2612C59.4783 24.2611 60.2896 23.7339 60.7603 22.9614C63.3991 18.6298 68.1658 15.737 73.6089 15.7368Z"/>
</mask>
<path d="M73.6089 15.7368V14.7368H73.6089L73.6089 15.7368ZM88.645 30.773L89.645 30.773V30.773H88.645ZM83.5366 42.064L84.1972 42.8147L84.1972 42.8147L83.5366 42.064ZM83.5356 42.0718L82.729 42.6629L82.7356 42.6718L83.5356 42.0718ZM83.5356 42.0786L84.2371 42.7913L84.2684 42.7605L84.2969 42.727L83.5356 42.0786ZM88.8901 47.4331L88.1792 46.7299L88.1775 46.7316L88.8901 47.4331ZM88.897 47.4321L89.427 46.5841L89.3862 46.5586L89.3431 46.5372L88.897 47.4321ZM88.9048 47.4312L88.1541 46.7705L88.154 46.7706L88.9048 47.4312ZM100.196 42.3237V41.3237H100.196L100.196 42.3237ZM115.232 57.3599L116.232 57.3599V57.3599L115.232 57.3599ZM108.008 70.2095L108.529 71.0635L108.529 71.0635L108.008 70.2095ZM106.708 72.396H105.708V72.3962L106.708 72.396ZM108.008 74.5825L108.529 73.7285L108.529 73.7285L108.008 74.5825ZM115.232 87.4312H116.232V87.4311L115.232 87.4312ZM100.196 102.467L100.196 103.467H100.196V102.467ZM88.9048 97.3589L88.154 98.0195L88.154 98.0195L88.9048 97.3589ZM88.897 97.3579L89.4609 98.1837L89.4792 98.1712L89.497 98.1579L88.897 97.3579ZM88.8901 97.3579L88.1775 98.0594L88.1916 98.0738L88.2063 98.0876L88.8901 97.3579ZM83.5356 102.712L84.2372 102L84.2372 102L83.5356 102.712ZM83.5366 102.72L82.6625 102.235L82.6515 102.254L82.6414 102.275L83.5366 102.72ZM83.5386 102.728L84.1993 101.977H84.1993L83.5386 102.728ZM88.645 114.018H89.645V114.018L88.645 114.018ZM73.6089 129.054L73.6089 130.054H73.6089L73.6089 129.054ZM60.7593 121.831L59.9053 122.351L59.9053 122.351L60.7593 121.831ZM58.5728 120.53V119.53H58.5726L58.5728 120.53ZM56.3862 121.831L57.2402 122.351L57.2402 122.351L56.3862 121.831ZM43.5376 129.054V130.054H43.5376L43.5376 129.054ZM28.5015 114.018L27.5015 114.018V114.018H28.5015ZM33.6099 102.727L32.9493 101.976L32.9493 101.976L33.6099 102.727ZM33.6108 102.719L32.793 103.295L32.8018 103.307L32.8108 103.319L33.6108 102.719ZM33.6108 102.712L32.9093 102L32.9001 102.009L32.891 102.018L33.6108 102.712ZM28.2563 97.3579L28.9609 98.0676L28.969 98.0595L28.2563 97.3579ZM28.2495 97.3589L27.7639 98.233L27.7807 98.2424L27.7979 98.2511L28.2495 97.3589ZM28.2407 97.3608L28.9914 98.0215L28.9914 98.0215L28.2407 97.3608ZM16.9507 102.467L16.9507 103.467H16.9507L16.9507 102.467ZM1.91455 87.4312L0.914551 87.4311V87.4312L1.91455 87.4312ZM9.13916 74.5815L9.65942 75.4356L9.65953 75.4355L9.13916 74.5815ZM10.439 72.395H11.439V72.3949L10.439 72.395ZM9.13916 70.2085L9.65943 69.3545L9.65942 69.3545L9.13916 70.2085ZM1.91455 57.3599H0.914551V57.3599L1.91455 57.3599ZM16.9507 42.3237L16.9507 41.3237H16.9507V42.3237ZM28.2417 47.4321L28.9925 46.7716L28.9925 46.7715L28.2417 47.4321ZM28.2495 47.4331L28.8297 48.2476L28.8397 48.2405L28.8495 48.2331L28.2495 47.4331ZM28.2563 47.4331L28.969 46.7316L28.9429 46.705L28.9148 46.6805L28.2563 47.4331ZM28.5015 30.773L27.5015 30.773V30.773L28.5015 30.773ZM43.5376 15.7368L43.5376 14.7368H43.5376L43.5376 15.7368ZM56.3872 22.9614L55.5332 23.4817L55.5333 23.4818L56.3872 22.9614ZM58.5737 24.2612V25.2612H58.5739L58.5737 24.2612ZM60.7603 22.9614L59.9062 22.4412L59.9062 22.4412L60.7603 22.9614ZM33.6155 42.0832L34.3171 41.3706L33.6155 42.0832ZM33.6099 42.0721L32.62 42.2135L33.6099 42.0721ZM48.3325 56.571L47.631 57.2836L48.3325 56.571ZM42.7487 82.6363L43.4614 83.3378L42.7487 82.6363ZM68.8136 88.2204L68.1121 88.9331V88.9331L68.8136 88.2204ZM42.7487 62.1548L43.4614 61.4532L42.7487 62.1548ZM68.7909 62.1761L69.4981 61.4691L68.7909 62.1761ZM74.3972 62.1545L73.6846 61.4529L74.3972 62.1545ZM48.3325 88.22L47.631 87.5074L48.3325 88.22ZM33.6035 42.0602L34.2644 41.3097L33.6035 42.0602ZM74.3982 82.6359L73.6855 83.3374L74.3982 82.6359ZM68.8133 56.5701L68.1118 55.8574L68.8133 56.5701ZM73.6089 15.7368V16.7368C81.3608 16.7368 87.645 23.021 87.645 30.773H88.645H89.645C89.645 21.9164 82.4654 14.7368 73.6089 14.7368V15.7368ZM88.645 30.773L87.645 30.7729C87.645 34.9725 85.8012 38.7394 82.876 41.3132L83.5366 42.064L84.1972 42.8147C87.5353 39.8776 89.645 35.5717 89.645 30.773L88.645 30.773ZM83.5366 42.064L82.8761 41.3132C82.6649 41.499 82.5695 41.7364 82.5431 41.9384C82.5168 42.1403 82.5466 42.4139 82.7291 42.6629L83.5356 42.0718L84.3422 41.4807C84.5231 41.7274 84.5523 41.998 84.5263 42.197C84.5004 42.3962 84.4062 42.6308 84.1972 42.8147L83.5366 42.064ZM83.5356 42.0718L82.7356 42.6718C82.4996 42.3571 82.4287 41.836 82.7744 41.4302L83.5356 42.0786L84.2969 42.727C84.6459 42.3174 84.5747 41.7905 84.3356 41.4718L83.5356 42.0718ZM83.5356 42.0786L82.8342 41.3659L68.1118 55.8574L68.8133 56.5701L69.5148 57.2827L84.2371 42.7913L83.5356 42.0786ZM74.3972 62.1545L75.1098 62.856L89.6028 48.1347L88.8901 47.4331L88.1775 46.7316L73.6846 61.4529L74.3972 62.1545ZM88.8901 47.4331L89.6011 48.1363C89.4189 48.3206 89.2015 48.3997 89.0238 48.423C88.8467 48.4463 88.6446 48.4237 88.4508 48.3271L88.897 47.4321L89.3431 46.5372C89.0047 46.3685 88.5225 46.3828 88.1792 46.7299L88.8901 47.4331ZM88.897 47.4321L88.367 48.2801C88.5933 48.4216 88.8315 48.448 89.0176 48.4261C89.2028 48.4044 89.4548 48.3198 89.6555 48.0917L88.9048 47.4312L88.154 46.7706C88.3529 46.5445 88.6022 46.4612 88.7845 46.4398C88.9677 46.4183 89.203 46.4441 89.427 46.5841L88.897 47.4321ZM88.9048 47.4312L89.6555 48.0918C92.2292 45.167 95.9964 43.3239 100.196 43.3237L100.196 42.3237L100.196 41.3237C95.3976 41.3239 91.0912 43.4327 88.1541 46.7705L88.9048 47.4312ZM100.196 42.3237V43.3237C107.948 43.3237 114.232 49.6079 114.232 57.3599L115.232 57.3599L116.232 57.3599C116.232 48.5034 109.052 41.3237 100.196 41.3237V42.3237ZM115.232 57.3599L114.232 57.3598C114.232 62.4399 111.534 66.8905 107.488 69.3555L108.008 70.2095L108.529 71.0635C113.146 68.2506 116.232 63.1661 116.232 57.3599L115.232 57.3599ZM108.008 70.2095L107.488 69.3555C106.466 69.9781 105.708 71.0891 105.708 72.396H106.708H107.708C107.708 71.8934 108.005 71.3822 108.529 71.0635L108.008 70.2095ZM106.708 72.396L105.708 72.3962C105.708 73.7026 106.466 74.8139 107.488 75.4365L108.008 74.5825L108.529 73.7285C108.006 73.4099 107.708 72.8985 107.708 72.3958L106.708 72.396ZM108.008 74.5825L107.488 75.4365C111.534 77.9015 114.232 82.3514 114.232 87.4312L115.232 87.4312L116.232 87.4311C116.232 81.625 113.145 76.5414 108.529 73.7285L108.008 74.5825ZM115.232 87.4312H114.232C114.232 95.1831 107.948 101.467 100.196 101.467V102.467V103.467C109.052 103.467 116.232 96.2877 116.232 87.4312H115.232ZM100.196 102.467L100.196 101.467C95.9963 101.467 92.2293 99.6235 89.6555 96.6983L88.9048 97.3589L88.154 98.0195C91.0911 101.358 95.3972 103.467 100.196 103.467L100.196 102.467ZM88.9048 97.3589L89.6556 96.6983C89.4734 96.4912 89.2391 96.3931 89.0327 96.3657C88.826 96.3382 88.5476 96.37 88.297 96.5579L88.897 97.3579L89.497 98.1579C89.2486 98.3442 88.9732 98.3753 88.7693 98.3483C88.5658 98.3212 88.3344 98.2244 88.154 98.0195L88.9048 97.3589ZM88.897 97.3579L88.333 96.5321C88.4733 96.4363 88.6543 96.3661 88.862 96.3596C89.0799 96.3527 89.3506 96.419 89.574 96.6283L88.8901 97.3579L88.2063 98.0876C88.6759 98.5277 89.2347 98.3382 89.4609 98.1837L88.897 97.3579ZM88.8901 97.3579L89.6028 96.6564L75.1108 81.9343L74.3982 82.6359L73.6855 83.3374L88.1775 98.0594L88.8901 97.3579ZM68.8136 88.2204L68.1121 88.9331L82.8341 103.425L83.5356 102.712L84.2372 102L69.5151 87.5078L68.8136 88.2204ZM83.5356 102.712L82.8341 103.425C82.4849 103.081 82.4675 102.586 82.6625 102.235L83.5366 102.72L84.4108 103.206C84.6086 102.85 84.5905 102.348 84.2372 102L83.5356 102.712ZM83.5366 102.72L82.6414 102.275C82.3876 102.784 82.6287 103.259 82.8779 103.479L83.5386 102.728L84.1993 101.977C84.3447 102.105 84.4504 102.274 84.5016 102.463C84.5537 102.656 84.5583 102.912 84.4318 103.166L83.5366 102.72ZM83.5386 102.728L82.8779 103.479C85.802 106.052 87.6449 109.819 87.645 114.018L88.645 114.018L89.645 114.018C89.6449 109.22 87.5364 104.914 84.1993 101.977L83.5386 102.728ZM88.645 114.018H87.645C87.645 121.77 81.3608 128.054 73.6089 128.054L73.6089 129.054L73.6089 130.054C82.4653 130.054 89.645 122.875 89.645 114.018H88.645ZM73.6089 129.054L73.6089 128.054C68.5289 128.054 64.0782 125.356 61.6133 121.31L60.7593 121.831L59.9053 122.351C62.7181 126.968 67.8027 130.054 73.6089 130.054L73.6089 129.054ZM60.7593 121.831L61.6133 121.31C60.9907 120.288 59.8796 119.53 58.5728 119.53V120.53V121.53C59.0753 121.53 59.5865 121.828 59.9053 122.351L60.7593 121.831ZM58.5728 120.53L58.5726 119.53C57.2661 119.53 56.1549 120.288 55.5322 121.31L56.3862 121.831L57.2402 122.351C57.5589 121.828 58.0703 121.53 58.5729 121.53L58.5728 120.53ZM56.3862 121.831L55.5322 121.31C53.0672 125.356 48.6173 128.054 43.5376 128.054L43.5376 129.054L43.5376 130.054C49.3437 130.054 54.4274 126.968 57.2402 122.351L56.3862 121.831ZM43.5376 129.054V128.054C35.7857 128.054 29.5015 121.77 29.5015 114.018H28.5015H27.5015C27.5015 122.875 34.6811 130.054 43.5376 130.054V129.054ZM28.5015 114.018L29.5015 114.018C29.5016 109.818 31.3453 106.052 34.2704 103.478L33.6099 102.727L32.9493 101.976C29.6111 104.913 27.5016 109.219 27.5015 114.018L28.5015 114.018ZM33.6099 102.727L34.2704 103.478C34.4775 103.296 34.5757 103.061 34.6031 102.855C34.6305 102.648 34.5988 102.37 34.4108 102.119L33.6108 102.719L32.8108 103.319C32.6246 103.071 32.5934 102.795 32.6205 102.592C32.6475 102.388 32.7443 102.157 32.9493 101.976L33.6099 102.727ZM33.6108 102.719L34.4286 102.144C34.5876 102.37 34.7836 102.937 34.3306 103.407L33.6108 102.712L32.891 102.018C32.4345 102.492 32.6311 103.065 32.793 103.295L33.6108 102.719ZM33.6108 102.712L34.3124 103.425L49.034 88.9326L48.3325 88.22L47.631 87.5074L32.9093 102L33.6108 102.712ZM42.7487 82.6363L42.0361 81.9347L27.5437 96.6564L28.2563 97.3579L28.969 98.0595L43.4614 83.3378L42.7487 82.6363ZM28.2563 97.3579L27.5518 96.6482C27.6845 96.5165 27.8773 96.4012 28.1195 96.3686C28.3562 96.3366 28.5585 96.3945 28.7011 96.4667L28.2495 97.3589L27.7979 98.2511C27.943 98.3245 28.1477 98.3829 28.3867 98.3506C28.6313 98.3177 28.8263 98.2012 28.9609 98.0676L28.2563 97.3579ZM28.2495 97.3589L28.7352 96.4847C28.4491 96.3258 28.1719 96.3476 28.0115 96.3861C27.8461 96.4258 27.6502 96.5183 27.4901 96.7002L28.2407 97.3608L28.9914 98.0215C28.8333 98.2012 28.6405 98.2919 28.4782 98.3309C28.3211 98.3686 28.0473 98.3905 27.7639 98.233L28.2495 97.3589ZM28.2407 97.3608L27.4901 96.7001C24.9163 99.6243 21.1496 101.467 16.9507 101.467L16.9507 102.467L16.9507 103.467C21.7485 103.467 26.0542 101.359 28.9914 98.0215L28.2407 97.3608ZM16.9507 102.467L16.9507 101.467C9.19881 101.467 2.91463 95.183 2.91455 87.4311L1.91455 87.4312L0.914551 87.4312C0.914642 96.2876 8.09423 103.467 16.9507 103.467L16.9507 102.467ZM1.91455 87.4312L2.91455 87.4312C2.91468 82.3512 5.61317 77.9005 9.65942 75.4356L9.13916 74.5815L8.6189 73.7275C4.00174 76.5403 0.914697 81.6248 0.914551 87.4311L1.91455 87.4312ZM9.13916 74.5815L9.65953 75.4355C10.6819 74.8125 11.439 73.7012 11.439 72.395H10.439H9.43896C9.43896 72.8981 9.14138 73.4092 8.61879 73.7276L9.13916 74.5815ZM10.439 72.395L11.439 72.3949C11.4388 71.089 10.6821 69.9775 9.65943 69.3545L9.13916 70.2085L8.61889 71.0625C9.14126 71.3807 9.43889 71.8919 9.43896 72.3952L10.439 72.395ZM9.13916 70.2085L9.65942 69.3545C5.61316 66.8895 2.91474 62.4396 2.91455 57.3598L1.91455 57.3599L0.914551 57.3599C0.914771 63.1662 4.00184 68.2498 8.6189 71.0625L9.13916 70.2085ZM1.91455 57.3599H2.91455C2.91455 49.6079 9.19874 43.3237 16.9507 43.3237V42.3237V41.3237C8.09417 41.3237 0.914552 48.5034 0.914551 57.3599H1.91455ZM16.9507 42.3237L16.9507 43.3237C21.1503 43.3238 24.9171 45.1675 27.4909 48.0927L28.2417 47.4321L28.9925 46.7715C26.0553 43.4334 21.7494 41.3238 16.9507 41.3237L16.9507 42.3237ZM28.2417 47.4321L27.4909 48.0927C27.6811 48.3088 27.9224 48.4009 28.119 48.426C28.3152 48.451 28.5828 48.4235 28.8297 48.2476L28.2495 47.4331L27.6693 46.6186C27.914 46.4444 28.1786 46.4174 28.3719 46.442C28.5656 46.4667 28.8042 46.5576 28.9925 46.7716L28.2417 47.4321ZM28.2495 47.4331L28.8495 48.2331C28.5454 48.4612 28.015 48.5507 27.5979 48.1857L28.2563 47.4331L28.9148 46.6805C28.4939 46.3122 27.9578 46.4019 27.6495 46.6331L28.2495 47.4331ZM28.2563 47.4331L27.5437 48.1346L42.0361 62.8563L42.7487 62.1548L43.4614 61.4532L28.969 46.7316L28.2563 47.4331ZM48.3325 56.571L49.034 55.8584L34.3171 41.3706L33.6155 42.0832L32.914 42.7959L47.631 57.2836L48.3325 56.571ZM33.6035 42.0602L34.2644 41.3097C31.3424 38.7362 29.5015 34.9703 29.5015 30.7729L28.5015 30.773L27.5015 30.773C27.5015 35.5686 29.6077 39.8734 32.9425 42.8106L33.6035 42.0602ZM28.5015 30.773L29.5015 30.773C29.5015 23.021 35.7857 16.7368 43.5376 16.7368L43.5376 15.7368L43.5376 14.7368C34.6811 14.7368 27.5015 21.9165 27.5015 30.773L28.5015 30.773ZM43.5376 15.7368L43.5376 16.7368C48.6175 16.7369 53.0682 19.4354 55.5332 23.4817L56.3872 22.9614L57.2412 22.4412C54.4284 17.824 49.344 14.737 43.5376 14.7368L43.5376 15.7368ZM56.3872 22.9614L55.5333 23.4818C56.1563 24.5041 57.2676 25.2612 58.5737 25.2612V24.2612V23.2612C58.0707 23.2612 57.5596 22.9636 57.2411 22.441L56.3872 22.9614ZM58.5737 24.2612L58.5739 25.2612C59.8797 25.261 60.9912 24.5044 61.6143 23.4817L60.7603 22.9614L59.9062 22.4412C59.5881 22.9635 59.0769 23.2611 58.5735 23.2612L58.5737 24.2612ZM60.7603 22.9614L61.6143 23.4817C64.0793 19.4354 68.5291 16.737 73.6089 16.7368L73.6089 15.7368L73.6089 14.7368C67.8025 14.737 62.719 17.8241 59.9062 22.4412L60.7603 22.9614ZM33.6155 42.0832L34.3171 41.3706C34.4701 41.5213 34.5695 41.718 34.5999 41.9307L33.6099 42.0721L32.62 42.2135C32.6515 42.4346 32.7549 42.6392 32.914 42.7959L33.6155 42.0832ZM48.3545 62.1768L49.0616 62.8839C51.0048 60.9406 50.9924 57.7863 49.034 55.8584L48.3325 56.571L47.631 57.2836C48.7978 58.4323 48.8052 60.3118 47.6474 61.4697L48.3545 62.1768ZM48.3545 82.6143L49.0616 81.9072C47.1184 79.9639 43.964 79.9763 42.0361 81.9347L42.7487 82.6363L43.4614 83.3378C44.6101 82.1709 46.4896 82.1635 47.6474 83.3214L48.3545 82.6143ZM68.7915 82.6138L68.0844 81.9067C66.1409 83.8501 66.1533 87.005 68.1121 88.9331L68.8136 88.2204L69.5151 87.5078C68.3479 86.3589 68.3405 84.479 69.4986 83.3209L68.7915 82.6138ZM42.7487 62.1548L42.0361 62.8563C43.964 64.8147 47.1184 64.8271 49.0616 62.8839L48.3545 62.1768L47.6474 61.4697C46.4896 62.6275 44.6101 62.6201 43.4614 61.4532L42.7487 62.1548ZM68.7909 62.1761L68.0837 62.8832C70.027 64.8268 73.1817 64.8146 75.1098 62.856L74.3972 62.1545L73.6846 61.4529C72.5357 62.6199 70.656 62.6272 69.4981 61.4691L68.7909 62.1761ZM48.3325 88.22L49.034 88.9326C50.9924 87.0047 51.0048 83.8504 49.0616 81.9072L48.3545 82.6143L47.6474 83.3214C48.8052 84.4792 48.7978 86.3587 47.631 87.5074L48.3325 88.22ZM33.6099 42.0721L34.5999 41.9307C34.5655 41.6901 34.4464 41.47 34.2644 41.3097L33.6035 42.0602L32.9425 42.8106C32.7676 42.6565 32.653 42.4449 32.62 42.2135L33.6099 42.0721ZM74.3982 82.6359L75.1108 81.9343C73.1827 79.9756 70.0279 79.9632 68.0844 81.9067L68.7915 82.6138L69.4986 83.3209C70.6567 82.1628 72.5366 82.1702 73.6855 83.3374L74.3982 82.6359ZM68.8133 56.5701L68.1118 55.8574C66.1532 57.7853 66.1406 60.9397 68.0837 62.8832L68.7909 62.1761L69.4981 61.4691C68.3402 60.3111 68.3477 58.4315 69.5148 57.2827L68.8133 56.5701Z" fill="white" fill-opacity="0.25" mask="url(#path-3-inside-1_51_345)"/>
<mask id="path-5-inside-2_51_345" fill="white">
<path d="M73.6089 7.56433C81.9131 7.56433 88.645 14.2962 88.645 22.6005C88.645 27.0996 86.6682 31.136 83.5366 33.8915C83.5345 33.8933 83.534 33.897 83.5356 33.8993C83.5372 33.9013 83.5373 33.9042 83.5356 33.9061L68.8133 48.3976C67.2505 49.9359 67.2404 52.4529 68.7909 54.0037C70.3415 55.5545 72.8587 55.5448 74.3972 53.982L88.8901 39.2606C88.8918 39.2589 88.8948 39.2586 88.897 39.2596C88.8993 39.2611 88.903 39.2607 88.9048 39.2587C91.6603 36.1273 95.6978 34.1512 100.197 34.1512C108.501 34.1515 115.232 40.8833 115.232 49.1874C115.232 54.6305 112.34 59.3981 108.008 62.037C107.236 62.5077 106.708 63.3188 106.708 64.2235C106.708 65.128 107.236 65.9394 108.008 66.41C112.34 69.049 115.232 73.8157 115.232 79.2587C115.232 87.5629 108.5 94.2948 100.196 94.2948C95.6967 94.2947 91.6602 92.318 88.9048 89.1864C88.9029 89.1843 88.8992 89.1837 88.897 89.1854C88.8949 89.1869 88.892 89.1872 88.8901 89.1854L74.3982 74.4634C72.8596 72.9004 70.3423 72.8905 68.7915 74.4413C67.2407 75.9921 67.2506 78.5094 68.8136 80.0479L83.5356 94.5399C83.5377 94.5419 83.538 94.5452 83.5366 94.5477C83.5353 94.5503 83.5364 94.5536 83.5386 94.5555C86.6693 97.311 88.645 101.348 88.645 105.847C88.6447 114.15 81.9129 120.882 73.6089 120.882C68.1658 120.882 63.3982 117.99 60.7593 113.658C60.2886 112.885 59.4775 112.357 58.5728 112.357C57.6682 112.357 56.8569 112.886 56.3862 113.658C53.7473 117.99 48.9805 120.882 43.5376 120.882C35.2334 120.882 28.5015 114.15 28.5015 105.846C28.5016 101.346 30.4782 97.31 33.6099 94.5546C33.612 94.5527 33.6125 94.549 33.6108 94.5468C33.6093 94.5446 33.609 94.5418 33.6108 94.5399L48.3325 80.0475C49.8951 78.5092 49.905 75.9923 48.3545 74.4418C46.804 72.8912 44.287 72.9011 42.7487 74.4638L28.2563 89.1854C28.2544 89.1874 28.252 89.1876 28.2495 89.1864C28.2469 89.1849 28.2427 89.1861 28.2407 89.1884C25.4853 92.319 21.449 94.2948 16.9507 94.2948C8.64652 94.2948 1.91464 87.5628 1.91455 79.2587C1.91469 73.8155 4.80746 69.0479 9.13916 66.4091C9.91163 65.9383 10.439 65.1271 10.439 64.2225C10.4388 63.318 9.91169 62.5066 9.13916 62.036C4.8075 59.3972 1.91476 54.6305 1.91455 49.1874C1.91455 40.8832 8.64646 34.1512 16.9507 34.1512C21.4499 34.1513 25.4862 36.128 28.2417 39.2596C28.2435 39.2617 28.2473 39.2622 28.2495 39.2606C28.2516 39.2591 28.2544 39.2589 28.2563 39.2606L42.7487 53.9823C44.287 55.5449 46.804 55.5548 48.3545 54.0043C49.905 52.4537 49.8951 49.9368 48.3325 48.3985L33.6155 33.9108C33.6125 33.9078 33.6105 33.9038 33.6099 33.8996C33.6092 33.895 33.607 33.8908 33.6035 33.8877C30.4751 31.1323 28.5015 27.097 28.5015 22.6005C28.5015 14.2963 35.2334 7.56435 43.5376 7.56433C48.9807 7.56447 53.7483 10.4572 56.3872 14.7889C56.8579 15.5614 57.6692 16.0887 58.5737 16.0887C59.4783 16.0886 60.2896 15.5614 60.7603 14.7889C63.3991 10.4573 68.1658 7.56449 73.6089 7.56433Z"/>
</mask>
<path d="M73.6089 7.56433V6.56433H73.6089L73.6089 7.56433ZM88.645 22.6005L89.645 22.6005V22.6005H88.645ZM83.5366 33.8915L84.1972 34.6422L84.1972 34.6422L83.5366 33.8915ZM83.5356 33.8993L82.729 34.4905L82.7356 34.4993L83.5356 33.8993ZM83.5356 33.9061L84.2371 34.6188L84.2684 34.588L84.2969 34.5546L83.5356 33.9061ZM88.8901 39.2606L88.1792 38.5574L88.1775 38.5591L88.8901 39.2606ZM88.897 39.2596L89.427 38.4116L89.3862 38.3861L89.3431 38.3647L88.897 39.2596ZM88.9048 39.2587L88.1541 38.5981L88.154 38.5981L88.9048 39.2587ZM100.197 34.1512L100.197 33.1512H100.197V34.1512ZM115.232 49.1874L116.232 49.1874V49.1874L115.232 49.1874ZM108.008 62.037L108.529 62.891L108.529 62.891L108.008 62.037ZM106.708 64.2235H105.708V64.2237L106.708 64.2235ZM108.008 66.41L108.529 65.556L108.529 65.556L108.008 66.41ZM115.232 79.2587H116.232V79.2586L115.232 79.2587ZM100.196 94.2948L100.196 95.2948H100.196V94.2948ZM88.9048 89.1864L88.154 89.847L88.154 89.847L88.9048 89.1864ZM88.897 89.1854L89.4609 90.0112L89.4792 89.9987L89.497 89.9854L88.897 89.1854ZM88.8901 89.1854L88.1775 89.8869L88.1916 89.9013L88.2063 89.9151L88.8901 89.1854ZM83.5356 94.5399L84.2372 93.8273L84.2372 93.8273L83.5356 94.5399ZM83.5366 94.5477L82.6625 94.0621L82.6515 94.0819L82.6414 94.1021L83.5366 94.5477ZM83.5386 94.5555L84.1993 93.8049H84.1993L83.5386 94.5555ZM88.645 105.847L89.645 105.847V105.847H88.645ZM73.6089 120.882L73.6089 121.882H73.6089L73.6089 120.882ZM60.7593 113.658L59.9053 114.178L59.9053 114.178L60.7593 113.658ZM58.5728 112.357V111.357H58.5726L58.5728 112.357ZM56.3862 113.658L57.2402 114.178L57.2402 114.178L56.3862 113.658ZM43.5376 120.882V121.882H43.5376L43.5376 120.882ZM28.5015 105.846L27.5015 105.846V105.846H28.5015ZM33.6099 94.5546L32.9493 93.8038L32.9493 93.8038L33.6099 94.5546ZM33.6108 94.5468L32.793 95.1223L32.8018 95.1346L32.8108 95.1468L33.6108 94.5468ZM33.6108 94.5399L32.9093 93.8273L32.9001 93.8364L32.891 93.8457L33.6108 94.5399ZM28.2563 89.1854L28.9609 89.8951L28.969 89.887L28.2563 89.1854ZM28.2495 89.1864L27.7639 90.0606L27.7807 90.0699L27.7979 90.0786L28.2495 89.1864ZM28.2407 89.1884L28.9914 89.8491L28.9914 89.849L28.2407 89.1884ZM16.9507 94.2948L16.9507 95.2948H16.9507L16.9507 94.2948ZM1.91455 79.2587L0.914551 79.2586V79.2587L1.91455 79.2587ZM9.13916 66.4091L9.65942 67.2631L9.65953 67.263L9.13916 66.4091ZM10.439 64.2225H11.439V64.2224L10.439 64.2225ZM9.13916 62.036L9.65943 61.182L9.65942 61.182L9.13916 62.036ZM1.91455 49.1874H0.914551V49.1874L1.91455 49.1874ZM16.9507 34.1512L16.9507 33.1512H16.9507V34.1512ZM28.2417 39.2596L28.9925 38.5991L28.9925 38.5991L28.2417 39.2596ZM28.2495 39.2606L28.8297 40.0751L28.8397 40.068L28.8495 40.0606L28.2495 39.2606ZM28.2563 39.2606L28.969 38.5591L28.9429 38.5325L28.9148 38.508L28.2563 39.2606ZM28.5015 22.6005L27.5015 22.6005V22.6005L28.5015 22.6005ZM43.5376 7.56433L43.5376 6.56433H43.5376L43.5376 7.56433ZM56.3872 14.7889L55.5332 15.3092L55.5333 15.3093L56.3872 14.7889ZM58.5737 16.0887V17.0887H58.5739L58.5737 16.0887ZM60.7603 14.7889L59.9062 14.2687L59.9062 14.2687L60.7603 14.7889ZM33.6155 33.9108L34.3171 33.1981L33.6155 33.9108ZM33.6099 33.8996L32.62 34.041L33.6099 33.8996ZM48.3325 48.3985L47.631 49.1111L48.3325 48.3985ZM42.7487 74.4638L43.4614 75.1653L42.7487 74.4638ZM68.8136 80.0479L68.1121 80.7606V80.7606L68.8136 80.0479ZM42.7487 53.9823L43.4614 53.2807L42.7487 53.9823ZM68.7909 54.0037L69.4981 53.2966L68.7909 54.0037ZM74.3972 53.982L73.6846 53.2804L74.3972 53.982ZM48.3325 80.0475L47.631 79.3349L48.3325 80.0475ZM33.6035 33.8877L34.2644 33.1373L33.6035 33.8877ZM74.3982 74.4634L73.6855 75.1649L74.3982 74.4634ZM68.8133 48.3976L68.1118 47.6849L68.8133 48.3976ZM73.6089 7.56433V8.56433C81.3608 8.56433 87.645 14.8485 87.645 22.6005H88.645H89.645C89.645 13.744 82.4654 6.56433 73.6089 6.56433V7.56433ZM88.645 22.6005L87.645 22.6005C87.645 26.8001 85.8012 30.5669 82.876 33.1407L83.5366 33.8915L84.1972 34.6422C87.5353 31.7051 89.645 27.3992 89.645 22.6005L88.645 22.6005ZM83.5366 33.8915L82.8761 33.1407C82.6649 33.3265 82.5695 33.5639 82.5431 33.7659C82.5168 33.9679 82.5466 34.2414 82.7291 34.4904L83.5356 33.8993L84.3422 33.3082C84.5231 33.5549 84.5523 33.8255 84.5263 34.0245C84.5004 34.2237 84.4062 34.4583 84.1972 34.6422L83.5366 33.8915ZM83.5356 33.8993L82.7356 34.4993C82.4996 34.1846 82.4287 33.6635 82.7744 33.2577L83.5356 33.9061L84.2969 34.5546C84.6459 34.1449 84.5747 33.618 84.3356 33.2993L83.5356 33.8993ZM83.5356 33.9061L82.8342 33.1935L68.1118 47.6849L68.8133 48.3976L69.5148 49.1103L84.2371 34.6188L83.5356 33.9061ZM74.3972 53.982L75.1098 54.6835L89.6028 39.9622L88.8901 39.2606L88.1775 38.5591L73.6846 53.2804L74.3972 53.982ZM88.8901 39.2606L89.6011 39.9638C89.4189 40.1481 89.2015 40.2272 89.0238 40.2505C88.8467 40.2738 88.6446 40.2512 88.4508 40.1546L88.897 39.2596L89.3431 38.3647C89.0047 38.196 88.5225 38.2103 88.1792 38.5574L88.8901 39.2606ZM88.897 39.2596L88.367 40.1076C88.5933 40.2491 88.8315 40.2755 89.0176 40.2537C89.2028 40.2319 89.4548 40.1474 89.6555 39.9193L88.9048 39.2587L88.154 38.5981C88.3529 38.372 88.6022 38.2887 88.7845 38.2673C88.9677 38.2458 89.203 38.2717 89.427 38.4116L88.897 39.2596ZM88.9048 39.2587L89.6555 39.9193C92.2292 36.9945 95.9972 35.1512 100.197 35.1512V34.1512V33.1512C95.3984 33.1512 91.0914 35.2601 88.1541 38.5981L88.9048 39.2587ZM100.197 34.1512L100.197 35.1512C107.948 35.1515 114.232 41.4356 114.232 49.1874L115.232 49.1874L116.232 49.1874C116.232 40.3311 109.053 33.1515 100.197 33.1512L100.197 34.1512ZM115.232 49.1874L114.232 49.1874C114.232 54.2674 111.534 58.718 107.488 61.183L108.008 62.037L108.529 62.891C113.146 60.0781 116.232 54.9936 116.232 49.1874L115.232 49.1874ZM108.008 62.037L107.488 61.183C106.466 61.8056 105.708 62.9166 105.708 64.2235H106.708H107.708C107.708 63.7209 108.005 63.2097 108.529 62.891L108.008 62.037ZM106.708 64.2235L105.708 64.2237C105.708 65.5301 106.466 66.6414 107.488 67.264L108.008 66.41L108.529 65.556C108.006 65.2374 107.708 64.726 107.708 64.2233L106.708 64.2235ZM108.008 66.41L107.488 67.264C111.534 69.729 114.232 74.1789 114.232 79.2587L115.232 79.2587L116.232 79.2586C116.232 73.4525 113.145 68.3689 108.529 65.556L108.008 66.41ZM115.232 79.2587H114.232C114.232 87.0106 107.948 93.2948 100.196 93.2948V94.2948V95.2948C109.052 95.2948 116.232 88.1152 116.232 79.2587H115.232ZM100.196 94.2948L100.196 93.2948C95.9963 93.2947 92.2293 91.451 89.6555 88.5258L88.9048 89.1864L88.154 89.847C91.0911 93.1851 95.3972 95.2946 100.196 95.2948L100.196 94.2948ZM88.9048 89.1864L89.6556 88.5258C89.4734 88.3187 89.2391 88.2206 89.0327 88.1932C88.826 88.1657 88.5476 88.1975 88.297 88.3854L88.897 89.1854L89.497 89.9854C89.2486 90.1717 88.9732 90.2029 88.7693 90.1758C88.5658 90.1487 88.3344 90.0519 88.154 89.847L88.9048 89.1864ZM88.897 89.1854L88.333 88.3596C88.4733 88.2638 88.6543 88.1936 88.862 88.1871C89.0799 88.1803 89.3506 88.2465 89.574 88.4558L88.8901 89.1854L88.2063 89.9151C88.6759 90.3552 89.2347 90.1657 89.4609 90.0112L88.897 89.1854ZM88.8901 89.1854L89.6028 88.4839L75.1108 73.7618L74.3982 74.4634L73.6855 75.1649L88.1775 89.8869L88.8901 89.1854ZM68.8136 80.0479L68.1121 80.7606L82.8341 95.2526L83.5356 94.5399L84.2372 93.8273L69.5151 79.3353L68.8136 80.0479ZM83.5356 94.5399L82.8341 95.2526C82.4849 94.9088 82.4675 94.413 82.6625 94.0621L83.5366 94.5477L84.4108 95.0334C84.6086 94.6774 84.5905 94.1751 84.2372 93.8273L83.5356 94.5399ZM83.5366 94.5477L82.6414 94.1021C82.3876 94.612 82.6287 95.0869 82.8779 95.3062L83.5386 94.5555L84.1993 93.8049C84.3447 93.9328 84.4504 94.1014 84.5016 94.2907C84.5537 94.4832 84.5583 94.7392 84.4318 94.9933L83.5366 94.5477ZM83.5386 94.5555L82.8779 95.3062C85.8021 97.8799 87.645 101.647 87.645 105.847H88.645H89.645C89.645 101.049 87.5365 96.7421 84.1993 93.8049L83.5386 94.5555ZM88.645 105.847L87.645 105.847C87.6448 113.598 81.3606 119.882 73.6089 119.882L73.6089 120.882L73.6089 121.882C82.4651 121.882 89.6447 114.703 89.645 105.847L88.645 105.847ZM73.6089 120.882L73.6089 119.882C68.5289 119.882 64.0782 117.184 61.6133 113.138L60.7593 113.658L59.9053 114.178C62.7181 118.796 67.8027 121.882 73.6089 121.882L73.6089 120.882ZM60.7593 113.658L61.6133 113.138C60.9907 112.116 59.8796 111.357 58.5728 111.357V112.357V113.357C59.0753 113.357 59.5865 113.655 59.9053 114.178L60.7593 113.658ZM58.5728 112.357L58.5726 111.357C57.2661 111.357 56.1549 112.116 55.5322 113.138L56.3862 113.658L57.2402 114.178C57.5589 113.655 58.0703 113.357 58.5729 113.357L58.5728 112.357ZM56.3862 113.658L55.5322 113.138C53.0672 117.184 48.6173 119.882 43.5376 119.882L43.5376 120.882L43.5376 121.882C49.3437 121.881 54.4274 118.795 57.2402 114.178L56.3862 113.658ZM43.5376 120.882V119.882C35.7857 119.882 29.5015 113.598 29.5015 105.846H28.5015H27.5015C27.5015 114.702 34.6811 121.882 43.5376 121.882V120.882ZM28.5015 105.846L29.5015 105.846C29.5016 101.646 31.3453 97.8791 34.2704 95.3053L33.6099 94.5546L32.9493 93.8038C29.6111 96.7409 27.5016 101.047 27.5015 105.846L28.5015 105.846ZM33.6099 94.5546L34.2704 95.3053C34.4775 95.1231 34.5757 94.8889 34.6031 94.6825C34.6305 94.4757 34.5988 94.1974 34.4108 93.9468L33.6108 94.5468L32.8108 95.1468C32.6246 94.8984 32.5934 94.623 32.6205 94.4191C32.6475 94.2156 32.7443 93.9841 32.9493 93.8038L33.6099 94.5546ZM33.6108 94.5468L34.4286 93.9712C34.5876 94.1971 34.7836 94.7644 34.3306 95.2341L33.6108 94.5399L32.891 93.8457C32.4345 94.3191 32.6311 94.8922 32.793 95.1223L33.6108 94.5468ZM33.6108 94.5399L34.3124 95.2525L49.034 80.7602L48.3325 80.0475L47.631 79.3349L32.9093 93.8273L33.6108 94.5399ZM42.7487 74.4638L42.0361 73.7622L27.5437 88.4839L28.2563 89.1854L28.969 89.887L43.4614 75.1653L42.7487 74.4638ZM28.2563 89.1854L27.5518 88.4757C27.6845 88.3441 27.8773 88.2287 28.1195 88.1961C28.3562 88.1642 28.5585 88.222 28.7011 88.2942L28.2495 89.1864L27.7979 90.0786C27.943 90.152 28.1477 90.2104 28.3867 90.1781C28.6313 90.1452 28.8263 90.0287 28.9609 89.8951L28.2563 89.1854ZM28.2495 89.1864L28.7352 88.3122C28.4491 88.1533 28.1719 88.1751 28.0115 88.2136C27.8461 88.2533 27.6502 88.3458 27.4901 88.5277L28.2407 89.1884L28.9914 89.849C28.8333 90.0287 28.6405 90.1194 28.4782 90.1584C28.3211 90.1961 28.0473 90.218 27.7639 90.0606L28.2495 89.1864ZM28.2407 89.1884L27.4901 88.5277C24.9163 91.4518 21.1496 93.2948 16.9507 93.2948L16.9507 94.2948L16.9507 95.2948C21.7485 95.2948 26.0542 93.1861 28.9914 89.8491L28.2407 89.1884ZM16.9507 94.2948L16.9507 93.2948C9.19881 93.2948 2.91463 87.0105 2.91455 79.2587L1.91455 79.2587L0.914551 79.2587C0.914642 88.1151 8.09423 95.2948 16.9507 95.2948L16.9507 94.2948ZM1.91455 79.2587L2.91455 79.2587C2.91468 74.1788 5.61317 69.7281 9.65942 67.2631L9.13916 66.4091L8.6189 65.555C4.00174 68.3678 0.914697 73.4523 0.914551 79.2586L1.91455 79.2587ZM9.13916 66.4091L9.65953 67.263C10.6819 66.64 11.439 65.5287 11.439 64.2225H10.439H9.43896C9.43896 64.7256 9.14138 65.2367 8.61879 65.5551L9.13916 66.4091ZM10.439 64.2225L11.439 64.2224C11.4388 62.9165 10.6821 61.805 9.65943 61.182L9.13916 62.036L8.61889 62.89C9.14126 63.2083 9.43889 63.7194 9.43896 64.2227L10.439 64.2225ZM9.13916 62.036L9.65942 61.182C5.61316 58.717 2.91474 54.2672 2.91455 49.1873L1.91455 49.1874L0.914551 49.1874C0.914771 54.9938 4.00184 60.0773 8.6189 62.89L9.13916 62.036ZM1.91455 49.1874H2.91455C2.91455 41.4354 9.19874 35.1512 16.9507 35.1512V34.1512V33.1512C8.09417 33.1512 0.914552 40.3309 0.914551 49.1874H1.91455ZM16.9507 34.1512L16.9507 35.1512C21.1503 35.1513 24.9171 36.995 27.4909 39.9202L28.2417 39.2596L28.9925 38.5991C26.0553 35.261 21.7494 33.1513 16.9507 33.1512L16.9507 34.1512ZM28.2417 39.2596L27.4909 39.9202C27.6811 40.1363 27.9224 40.2284 28.119 40.2535C28.3152 40.2785 28.5828 40.251 28.8297 40.0751L28.2495 39.2606L27.6693 38.4461C27.914 38.2719 28.1786 38.2449 28.3719 38.2695C28.5656 38.2942 28.8042 38.3851 28.9925 38.5991L28.2417 39.2596ZM28.2495 39.2606L28.8495 40.0606C28.5454 40.2887 28.015 40.3782 27.5979 40.0132L28.2563 39.2606L28.9148 38.508C28.4939 38.1397 27.9578 38.2294 27.6495 38.4606L28.2495 39.2606ZM28.2563 39.2606L27.5437 39.9622L42.0361 54.6838L42.7487 53.9823L43.4614 53.2807L28.969 38.5591L28.2563 39.2606ZM48.3325 48.3985L49.034 47.6859L34.3171 33.1981L33.6155 33.9108L32.914 34.6234L47.631 49.1111L48.3325 48.3985ZM33.6035 33.8877L34.2644 33.1373C31.3424 30.5637 29.5015 26.7978 29.5015 22.6005L28.5015 22.6005L27.5015 22.6005C27.5015 27.3961 29.6077 31.7009 32.9425 34.6381L33.6035 33.8877ZM28.5015 22.6005L29.5015 22.6005C29.5015 14.8485 35.7857 8.56435 43.5376 8.56433L43.5376 7.56433L43.5376 6.56433C34.6811 6.56435 27.5015 13.744 27.5015 22.6005L28.5015 22.6005ZM43.5376 7.56433L43.5376 8.56433C48.6175 8.56446 53.0682 11.263 55.5332 15.3092L56.3872 14.7889L57.2412 14.2687C54.4284 9.65152 49.344 6.56448 43.5376 6.56433L43.5376 7.56433ZM56.3872 14.7889L55.5333 15.3093C56.1563 16.3316 57.2676 17.0887 58.5737 17.0887V16.0887V15.0887C58.0707 15.0887 57.5596 14.7911 57.2411 14.2686L56.3872 14.7889ZM58.5737 16.0887L58.5739 17.0887C59.8797 17.0885 60.9912 16.3319 61.6143 15.3092L60.7603 14.7889L59.9062 14.2687C59.5881 14.791 59.0769 15.0886 58.5735 15.0887L58.5737 16.0887ZM60.7603 14.7889L61.6143 15.3092C64.0793 11.2629 68.5291 8.56448 73.6089 8.56433L73.6089 7.56433L73.6089 6.56433C67.8025 6.56451 62.719 9.65161 59.9062 14.2687L60.7603 14.7889ZM33.6155 33.9108L34.3171 33.1981C34.4701 33.3488 34.5695 33.5456 34.5999 33.7582L33.6099 33.8996L32.62 34.041C32.6515 34.2621 32.7549 34.4667 32.914 34.6234L33.6155 33.9108ZM48.3545 54.0043L49.0616 54.7114C51.0048 52.7682 50.9924 49.6138 49.034 47.6859L48.3325 48.3985L47.631 49.1111C48.7978 50.2599 48.8052 52.1393 47.6474 53.2972L48.3545 54.0043ZM48.3545 74.4418L49.0616 73.7347C47.1184 71.7915 43.964 71.8038 42.0361 73.7622L42.7487 74.4638L43.4614 75.1653C44.6101 73.9984 46.4896 73.9911 47.6474 75.1489L48.3545 74.4418ZM68.7915 74.4413L68.0844 73.7342C66.1409 75.6777 66.1533 78.8325 68.1121 80.7606L68.8136 80.0479L69.5151 79.3353C68.3479 78.1864 68.3405 76.3065 69.4986 75.1484L68.7915 74.4413ZM42.7487 53.9823L42.0361 54.6838C43.964 56.6422 47.1184 56.6546 49.0616 54.7114L48.3545 54.0043L47.6474 53.2972C46.4896 54.455 44.6101 54.4476 43.4614 53.2807L42.7487 53.9823ZM68.7909 54.0037L68.0837 54.7107C70.027 56.6543 73.1817 56.6421 75.1098 54.6835L74.3972 53.982L73.6846 53.2804C72.5357 54.4474 70.656 54.4547 69.4981 53.2966L68.7909 54.0037ZM48.3325 80.0475L49.034 80.7602C50.9924 78.8323 51.0048 75.6779 49.0616 73.7347L48.3545 74.4418L47.6474 75.1489C48.8052 76.3067 48.7978 78.1862 47.631 79.3349L48.3325 80.0475ZM33.6099 33.8996L34.5999 33.7582C34.5655 33.5176 34.4464 33.2975 34.2644 33.1373L33.6035 33.8877L32.9425 34.6381C32.7676 34.484 32.653 34.2724 32.62 34.041L33.6099 33.8996ZM74.3982 74.4634L75.1108 73.7618C73.1827 71.8031 70.0279 71.7907 68.0844 73.7342L68.7915 74.4413L69.4986 75.1484C70.6567 73.9903 72.5366 73.9977 73.6855 75.1649L74.3982 74.4634ZM68.8133 48.3976L68.1118 47.6849C66.1532 49.6128 66.1406 52.7672 68.0837 54.7107L68.7909 54.0037L69.4981 53.2966C68.3402 52.1386 68.3477 50.259 69.5148 49.1103L68.8133 48.3976Z" fill="white" fill-opacity="0.5" mask="url(#path-5-inside-2_51_345)"/>
<path d="M73.6089 0C81.9131 0 88.645 6.73191 88.645 15.0361C88.645 19.5353 86.6682 23.5716 83.5366 26.3271C83.5345 26.329 83.534 26.3327 83.5356 26.335C83.5372 26.337 83.5373 26.3399 83.5356 26.3418L68.8133 40.8332C67.2505 42.3715 67.2404 44.8886 68.7909 46.4393C70.3415 47.9902 72.8587 47.9804 74.3972 46.4177L88.8901 31.6963C88.8918 31.6946 88.8948 31.6942 88.897 31.6953C88.8993 31.6968 88.903 31.6964 88.9048 31.6943C91.6603 28.563 95.6978 26.5869 100.197 26.5869C108.501 26.5872 115.232 33.319 115.232 41.623C115.232 47.0662 112.34 51.8338 108.008 54.4727C107.236 54.9433 106.708 55.7545 106.708 56.6592C106.708 57.5637 107.236 58.3751 108.008 58.8457C112.34 61.4846 115.232 66.2514 115.232 71.6943C115.232 79.9986 108.5 86.7305 100.196 86.7305C95.6967 86.7303 91.6602 84.7537 88.9048 81.6221C88.9029 81.6199 88.8992 81.6194 88.897 81.6211C88.8949 81.6225 88.892 81.6228 88.8901 81.6211L74.3982 66.899C72.8596 65.3361 70.3423 65.3262 68.7915 66.877C67.2407 68.4277 67.2506 70.9451 68.8136 72.4836L83.5356 86.9756C83.5377 86.9776 83.538 86.9809 83.5366 86.9834C83.5353 86.986 83.5364 86.9893 83.5386 86.9912C86.6693 89.7467 88.645 93.7838 88.645 98.2822C88.6447 106.586 81.9129 113.317 73.6089 113.317C68.1658 113.317 63.3982 110.425 60.7593 106.094C60.2886 105.321 59.4775 104.793 58.5728 104.793C57.6682 104.793 56.8569 105.321 56.3862 106.094C53.7473 110.425 48.9805 113.317 43.5376 113.317C35.2334 113.317 28.5015 106.585 28.5015 98.2812C28.5016 93.7821 30.4782 89.7457 33.6099 86.9902C33.612 86.9884 33.6125 86.9847 33.6108 86.9824C33.6093 86.9803 33.609 86.9775 33.6108 86.9756L48.3325 72.4832C49.8951 70.9449 49.905 68.428 48.3545 66.8774C46.804 65.3269 44.287 65.3368 42.7487 66.8994L28.2563 81.6211C28.2544 81.623 28.252 81.6233 28.2495 81.6221C28.2469 81.6206 28.2427 81.6218 28.2407 81.624C25.4853 84.7546 21.449 86.7304 16.9507 86.7305C8.64652 86.7305 1.91464 79.9985 1.91455 71.6943C1.91469 66.2512 4.80746 61.4836 9.13916 58.8447C9.91163 58.374 10.439 57.5628 10.439 56.6582C10.4388 55.7536 9.91169 54.9423 9.13916 54.4717C4.8075 51.8328 1.91476 47.0661 1.91455 41.623C1.91455 33.3188 8.64646 26.5869 16.9507 26.5869C21.4499 26.5869 25.4862 28.5637 28.2417 31.6953C28.2435 31.6974 28.2473 31.6979 28.2495 31.6963C28.2516 31.6947 28.2544 31.6946 28.2563 31.6963L42.7487 46.4179C44.287 47.9806 46.804 47.9905 48.3545 46.4399C49.905 44.8894 49.8951 42.3725 48.3325 40.8342L33.6155 26.3464C33.6125 26.3434 33.6105 26.3395 33.6099 26.3353C33.6092 26.3307 33.607 26.3264 33.6035 26.3234C30.4751 23.568 28.5015 19.5326 28.5015 15.0361C28.5015 6.73193 35.2334 1.95869e-05 43.5376 0C48.9807 0.000136373 53.7483 2.89291 56.3872 7.22461C56.8579 7.99704 57.6692 8.52441 58.5737 8.52441C59.4783 8.52424 60.2896 7.99712 60.7603 7.22461C63.3991 2.89293 68.1658 0.000163521 73.6089 0Z" fill="white"/>
<path d="M73.6089 0C81.9131 0 88.645 6.73191 88.645 15.0361C88.645 19.5353 86.6682 23.5716 83.5366 26.3271C83.5345 26.329 83.534 26.3327 83.5356 26.335C83.5372 26.337 83.5373 26.3399 83.5356 26.3418L68.8133 40.8332C67.2505 42.3715 67.2404 44.8886 68.7909 46.4393C70.3415 47.9902 72.8587 47.9804 74.3972 46.4177L88.8901 31.6963C88.8918 31.6946 88.8948 31.6942 88.897 31.6953C88.8993 31.6968 88.903 31.6964 88.9048 31.6943C91.6603 28.563 95.6978 26.5869 100.197 26.5869C108.501 26.5872 115.232 33.319 115.232 41.623C115.232 47.0662 112.34 51.8338 108.008 54.4727C107.236 54.9433 106.708 55.7545 106.708 56.6592C106.708 57.5637 107.236 58.3751 108.008 58.8457C112.34 61.4846 115.232 66.2514 115.232 71.6943C115.232 79.9986 108.5 86.7305 100.196 86.7305C95.6967 86.7303 91.6602 84.7537 88.9048 81.6221C88.9029 81.6199 88.8992 81.6194 88.897 81.6211C88.8949 81.6225 88.892 81.6228 88.8901 81.6211L74.3982 66.899C72.8596 65.3361 70.3423 65.3262 68.7915 66.877C67.2407 68.4277 67.2506 70.9451 68.8136 72.4836L83.5356 86.9756C83.5377 86.9776 83.538 86.9809 83.5366 86.9834C83.5353 86.986 83.5364 86.9893 83.5386 86.9912C86.6693 89.7467 88.645 93.7838 88.645 98.2822C88.6447 106.586 81.9129 113.317 73.6089 113.317C68.1658 113.317 63.3982 110.425 60.7593 106.094C60.2886 105.321 59.4775 104.793 58.5728 104.793C57.6682 104.793 56.8569 105.321 56.3862 106.094C53.7473 110.425 48.9805 113.317 43.5376 113.317C35.2334 113.317 28.5015 106.585 28.5015 98.2812C28.5016 93.7821 30.4782 89.7457 33.6099 86.9902C33.612 86.9884 33.6125 86.9847 33.6108 86.9824C33.6093 86.9803 33.609 86.9775 33.6108 86.9756L48.3325 72.4832C49.8951 70.9449 49.905 68.428 48.3545 66.8774C46.804 65.3269 44.287 65.3368 42.7487 66.8994L28.2563 81.6211C28.2544 81.623 28.252 81.6233 28.2495 81.6221C28.2469 81.6206 28.2427 81.6218 28.2407 81.624C25.4853 84.7546 21.449 86.7304 16.9507 86.7305C8.64652 86.7305 1.91464 79.9985 1.91455 71.6943C1.91469 66.2512 4.80746 61.4836 9.13916 58.8447C9.91163 58.374 10.439 57.5628 10.439 56.6582C10.4388 55.7536 9.91169 54.9423 9.13916 54.4717C4.8075 51.8328 1.91476 47.0661 1.91455 41.623C1.91455 33.3188 8.64646 26.5869 16.9507 26.5869C21.4499 26.5869 25.4862 28.5637 28.2417 31.6953C28.2435 31.6974 28.2473 31.6979 28.2495 31.6963C28.2516 31.6947 28.2544 31.6946 28.2563 31.6963L42.7487 46.4179C44.287 47.9806 46.804 47.9905 48.3545 46.4399C49.905 44.8894 49.8951 42.3725 48.3325 40.8342L33.6155 26.3464C33.6125 26.3434 33.6105 26.3395 33.6099 26.3353C33.6092 26.3307 33.607 26.3264 33.6035 26.3234C30.4751 23.568 28.5015 19.5326 28.5015 15.0361C28.5015 6.73193 35.2334 1.95869e-05 43.5376 0C48.9807 0.000136373 53.7483 2.89291 56.3872 7.22461C56.8579 7.99704 57.6692 8.52441 58.5737 8.52441C59.4783 8.52424 60.2896 7.99712 60.7603 7.22461C63.3991 2.89293 68.1658 0.000163521 73.6089 0Z" fill="white"/>
<path d="M73.6089 0C81.9131 0 88.645 6.73191 88.645 15.0361C88.645 19.5353 86.6682 23.5716 83.5366 26.3271C83.5345 26.329 83.534 26.3327 83.5356 26.335C83.5372 26.337 83.5373 26.3399 83.5356 26.3418L68.8133 40.8332C67.2505 42.3715 67.2404 44.8886 68.7909 46.4393C70.3415 47.9902 72.8587 47.9804 74.3972 46.4177L88.8901 31.6963C88.8918 31.6946 88.8948 31.6942 88.897 31.6953C88.8993 31.6968 88.903 31.6964 88.9048 31.6943C91.6603 28.563 95.6978 26.5869 100.197 26.5869C108.501 26.5872 115.232 33.319 115.232 41.623C115.232 47.0662 112.34 51.8338 108.008 54.4727C107.236 54.9433 106.708 55.7545 106.708 56.6592C106.708 57.5637 107.236 58.3751 108.008 58.8457C112.34 61.4846 115.232 66.2514 115.232 71.6943C115.232 79.9986 108.5 86.7305 100.196 86.7305C95.6967 86.7303 91.6602 84.7537 88.9048 81.6221C88.9029 81.6199 88.8992 81.6194 88.897 81.6211C88.8949 81.6225 88.892 81.6228 88.8901 81.6211L74.3982 66.899C72.8596 65.3361 70.3423 65.3262 68.7915 66.877C67.2407 68.4277 67.2506 70.9451 68.8136 72.4836L83.5356 86.9756C83.5377 86.9776 83.538 86.9809 83.5366 86.9834C83.5353 86.986 83.5364 86.9893 83.5386 86.9912C86.6693 89.7467 88.645 93.7838 88.645 98.2822C88.6447 106.586 81.9129 113.317 73.6089 113.317C68.1658 113.317 63.3982 110.425 60.7593 106.094C60.2886 105.321 59.4775 104.793 58.5728 104.793C57.6682 104.793 56.8569 105.321 56.3862 106.094C53.7473 110.425 48.9805 113.317 43.5376 113.317C35.2334 113.317 28.5015 106.585 28.5015 98.2812C28.5016 93.7821 30.4782 89.7457 33.6099 86.9902C33.612 86.9884 33.6125 86.9847 33.6108 86.9824C33.6093 86.9803 33.609 86.9775 33.6108 86.9756L48.3325 72.4832C49.8951 70.9449 49.905 68.428 48.3545 66.8774C46.804 65.3269 44.287 65.3368 42.7487 66.8994L28.2563 81.6211C28.2544 81.623 28.252 81.6233 28.2495 81.6221C28.2469 81.6206 28.2427 81.6218 28.2407 81.624C25.4853 84.7546 21.449 86.7304 16.9507 86.7305C8.64652 86.7305 1.91464 79.9985 1.91455 71.6943C1.91469 66.2512 4.80746 61.4836 9.13916 58.8447C9.91163 58.374 10.439 57.5628 10.439 56.6582C10.4388 55.7536 9.91169 54.9423 9.13916 54.4717C4.8075 51.8328 1.91476 47.0661 1.91455 41.623C1.91455 33.3188 8.64646 26.5869 16.9507 26.5869C21.4499 26.5869 25.4862 28.5637 28.2417 31.6953C28.2435 31.6974 28.2473 31.6979 28.2495 31.6963C28.2516 31.6947 28.2544 31.6946 28.2563 31.6963L42.7487 46.4179C44.287 47.9806 46.804 47.9905 48.3545 46.4399C49.905 44.8894 49.8951 42.3725 48.3325 40.8342L33.6155 26.3464C33.6125 26.3434 33.6105 26.3395 33.6099 26.3353C33.6092 26.3307 33.607 26.3264 33.6035 26.3234C30.4751 23.568 28.5015 19.5326 28.5015 15.0361C28.5015 6.73193 35.2334 1.95869e-05 43.5376 0C48.9807 0.000136373 53.7483 2.89291 56.3872 7.22461C56.8579 7.99704 57.6692 8.52441 58.5737 8.52441C59.4783 8.52424 60.2896 7.99712 60.7603 7.22461C63.3991 2.89293 68.1658 0.000163521 73.6089 0Z" fill="white"/>
</svg>
